<svg xmlns="http://www.w3.org/2000/svg" xmlns:xlink="http://www.w3.org/1999/xlink" width="130" height="130" viewBox="0 0 130 130">
  <defs>
    <filter id="Ellipse_4" x="0" y="0" width="130" height="130" filterUnits="userSpaceOnUse">
      <feOffset dy="3" input="SourceAlpha"/>
      <feGaussianBlur stdDeviation="4" result="blur"/>
      <feFlood flood-opacity="0.502"/>
      <feComposite operator="in" in2="blur"/>
      <feComposite in="SourceGraphic"/>
    </filter>
  </defs>
  <g id="ButtonCart" transform="translate(-1717 -840)">
    <g transform="matrix(1, 0, 0, 1, 1717, 840)" filter="url(#Ellipse_4)">
      <g id="Ellipse_4-2" data-name="Ellipse 4" transform="translate(12 9)" fill="#fff" stroke="#707070" stroke-width="2">
        <circle cx="53" cy="53" r="53" stroke="none"/>
        <circle cx="53" cy="53" r="52" fill="none"/>
      </g>
    </g>
    <path id="shopping_cart_FILL0_wght400_GRAD0_opsz48" d="M14.35,43.95a3.6,3.6,0,1,1,2.525-6.15,3.431,3.431,0,0,1,1.075,2.55,3.585,3.585,0,0,1-3.6,3.6Zm20,0a3.6,3.6,0,1,1,2.525-6.15,3.431,3.431,0,0,1,1.075,2.55,3.585,3.585,0,0,1-3.6,3.6Zm-22.6-33,5.5,11.4h14.4l6.25-11.4ZM8.4,33.55,14.05,23.1,6.45,7H2.55V4H8.4l1.85,3.95H43.2l-9.65,17.4H16.2l-2.8,5.2H37.95v3Zm8.85-11.2h0Z" transform="translate(1759.125 878.025)" fill="#707070"/>
  </g>
</svg>
