<svg xmlns="http://www.w3.org/2000/svg" width="23.166" height="23.166" viewBox="0 0 23.166 23.166">
  <path id="account_circle_FILL0_wght400_GRAD0_opsz48" d="M8.112,22.1a16.678,16.678,0,0,1,3.62-1.955,10.776,10.776,0,0,1,3.851-.681,10.893,10.893,0,0,1,3.866.681A16.545,16.545,0,0,1,23.083,22.1a10.166,10.166,0,0,0,1.81-3.156,10.466,10.466,0,0,0,.536-3.359,9.647,9.647,0,0,0-9.846-9.846,9.647,9.647,0,0,0-9.846,9.846,10.215,10.215,0,0,0,.55,3.359A10.421,10.421,0,0,0,8.112,22.1Zm7.471-5.647a3.907,3.907,0,0,1-3.967-3.967,3.907,3.907,0,0,1,3.967-3.967,3.907,3.907,0,0,1,3.967,3.967,3.907,3.907,0,0,1-3.967,3.967Zm0,10.714a11.208,11.208,0,0,1-4.488-.912,11.67,11.67,0,0,1-6.182-6.182,11.535,11.535,0,0,1,0-8.991,11.709,11.709,0,0,1,6.182-6.168,11.535,11.535,0,0,1,8.991,0,11.749,11.749,0,0,1,6.168,6.168,11.535,11.535,0,0,1,0,8.991,11.709,11.709,0,0,1-6.168,6.182A11.176,11.176,0,0,1,15.583,27.166Zm0-1.737a10.62,10.62,0,0,0,3.113-.463,9.251,9.251,0,0,0,3-1.622,12.6,12.6,0,0,0-3.012-1.593,9,9,0,0,0-6.2,0,12.6,12.6,0,0,0-3.012,1.593,9.251,9.251,0,0,0,3,1.622A10.62,10.62,0,0,0,15.583,25.429Zm0-10.714a2.133,2.133,0,0,0,2.23-2.23,2.231,2.231,0,1,0-4.459,0,2.133,2.133,0,0,0,2.23,2.23ZM15.583,12.485ZM15.583,23.315Z" transform="translate(-4 -4)" fill="#707070"/>
</svg>
